# xmcd CD database file
#
# Track frame offsets:
#	150
#	37470
#	81125
#	103097
#	129712
#	163725
#	176875
#	213562
#	247320
#	266075
#	294425
#
# Disc length: 4359 seconds
#
# Revision: 3
# Processed by: cddbd v1.5.2PL0 Copyright (c) Steve Scherf et al.
# Submitted via: CDex 1.51
#
DISCID=b411050b
DTITLE=Shamall - Mirror To Eternity
DYEAR=1993
DGENRE=New Age
TTITLE0=Mirror To Eternity
TTITLE1=Mission Hussein
TTITLE2=Ride Fast
TTITLE3=Aurora
TTITLE4=Follow your Dreams
TTITLE5=Summer Dreams
TTITLE6=Rotation
TTITLE7=The Visitor
TTITLE8=Spring
TTITLE9=Still Got the Blues
TTITLE10=Aurora (Dance Mix)
EXTD=YEAR: 1993
EXTT0=
EXTT1=
EXTT2=
EXTT3=
EXTT4=
EXTT5=
EXTT6=
EXTT7=
EXTT8=
EXTT9=
EXTT10=
PLAYORDER=
